<svg id="Grupo_63" data-name="Grupo 63" xmlns="http://www.w3.org/2000/svg" width="49.197" height="8.256" viewBox="0 0 49.197 8.256">
  <path id="Icon_feather-star" data-name="Icon feather-star" d="M7.341,3,8.682,5.717l3,.438L9.511,8.27l.512,2.987L7.341,9.846,4.658,11.256,5.17,8.27,3,6.156l3-.438Z" transform="translate(-3 -3)" fill="#fdc308"/>
  <path id="Icon_feather-star-2" data-name="Icon feather-star" d="M7.341,3,8.682,5.717l3,.438L9.511,8.27l.512,2.987L7.341,9.846,4.658,11.256,5.17,8.27,3,6.156l3-.438Z" transform="translate(7.129 -3)" fill="#fdc308"/>
  <path id="Icon_feather-star-3" data-name="Icon feather-star" d="M7.341,3,8.682,5.717l3,.438L9.511,8.27l.512,2.987L7.341,9.846,4.658,11.256,5.17,8.27,3,6.156l3-.438Z" transform="translate(17.257 -3)" fill="#fdc308"/>
  <path id="Icon_feather-star-4" data-name="Icon feather-star" d="M7.341,3,8.682,5.717l3,.438L9.511,8.27l.512,2.987L7.341,9.846,4.658,11.256,5.17,8.27,3,6.156l3-.438Z" transform="translate(27.386 -3)" fill="#fdc308"/>
  <path id="Icon_feather-star-5" data-name="Icon feather-star" d="M7.341,3,8.682,5.717l3,.438L9.511,8.27l.512,2.987L7.341,9.846,4.658,11.256,5.17,8.27,3,6.156l3-.438Z" transform="translate(37.515 -3)" fill="#fdc308"/>
</svg>
