<svg xmlns="http://www.w3.org/2000/svg" width="194.885" height="194.345" viewBox="0 0 194.885 194.345">
  <g id="logo" transform="translate(-173.189 -231.5)">
    <g id="Grupo_1" data-name="Grupo 1" transform="translate(173.189 231.5)">
      <g id="Retângulo_1" data-name="Retângulo 1" transform="translate(95.678 0) rotate(43)" fill="#ee008d" stroke="#fff" stroke-width="1">
        <rect width="69.829" height="69.829" stroke="none"/>
        <rect x="0.5" y="0.5" width="68.829" height="68.829" fill="none"/>
      </g>
      <g id="Retângulo_2" data-name="Retângulo 2" transform="translate(95.678 95.652) rotate(43)" fill="#01a0a1" stroke="#fff" stroke-width="1">
        <rect width="69.829" height="69.829" stroke="none"/>
        <rect x="0.5" y="0.5" width="68.829" height="68.829" fill="none"/>
      </g>
      <g id="Caminho_1" data-name="Caminho 1" transform="translate(0 99.141) rotate(-47)" fill="#fdc308">
        <path d="M 67.51216125488281 70.67730712890625 L 33.46703338623047 70.62423706054688 L 0.5022353529930115 67.21457672119141 L 0.8328636884689331 0.4999967813491821 L 69.63031768798828 0.4999967813491821 L 67.30168914794922 35.46279525756836 L 67.29969787597656 35.49266815185547 L 67.30127716064453 35.52256774902344 L 68.97468566894531 67.00299835205078 L 67.51216125488281 70.67730712890625 Z" stroke="none"/>
        <path d="M 1.330398559570312 1 L 1.004478454589844 66.76386260986328 L 33.49313735961914 70.124267578125 L 67.17322540283203 70.17678070068359 L 68.46956634521484 66.91999053955078 L 66.79879760742188 35.48931503295898 L 69.09590148925781 1 L 1.330398559570312 1 M 0.3353424072265625 0 L 70.16471862792969 0 L 67.80056762695312 35.49602508544922 L 69.47979736328125 67.08597564697266 L 67.85106658935547 71.17783355712891 L 33.44083023071289 71.12418365478516 L 0 67.66529846191406 L 0.3353424072265625 0 Z" stroke="none" fill="#fff"/>
      </g>
      <g id="Caminho_3" data-name="Caminho 3" transform="translate(95.114 98.181) rotate(-47)" fill="#8cc745">
        <path d="M 69.33274078369141 70.37722015380859 L 0.5312507152557373 70.37722015380859 L 2.668301582336426 35.14982986450195 L 2.669781446456909 35.12548828125 L 2.66888165473938 35.10113143920898 L 1.521411538124084 3.978340148925781 L 1.518661499023438 3.903670072555542 L 1.494191527366638 3.833070039749146 L 0.6956483125686646 1.528365135192871 L 37.01274490356445 0.5006840229034424 L 69.78292846679688 3.675235986709595 L 69.33274078369141 70.37722015380859 Z" stroke="none"/>
        <path d="M 36.99564743041992 1.001365661621094 L 1.391304016113281 2.008872985839844 L 2.01556396484375 3.810577392578125 L 3.170341491699219 35.13143157958984 L 3.167381286621094 35.18009948730469 L 1.0625 69.87722015380859 L 68.83610534667969 69.87722015380859 L 69.27985382080078 4.128829956054688 L 36.99564743041992 1.001365661621094 M 37.02984237670898 0 L 70.28600311279297 3.22161865234375 L 69.82938385009766 70.87722015380859 L 0 70.87722015380859 L 2.169219970703125 35.11954879760742 L 1.021743774414062 3.996757507324219 L 0 1.047836303710938 L 37.02984237670898 0 Z" stroke="none" fill="#fff"/>
      </g>
    </g>
    <path id="União_1" data-name="União 1" d="M26.156,75.145l21.781-23.5H0L26.913,25.458l22.813,22.2.1.1V0l25.44,26.42L53.54,49.826h47.931L74.557,76.012,51.645,53.719v47.752Z" transform="translate(216.622 281.534) rotate(-4)" fill="#fff"/>
    <rect id="Retângulo_3" data-name="Retângulo 3" width="10.547" height="10.547" rx="5.274" transform="translate(263.307 325.731) rotate(-22)" fill="#fff"/>
  </g>
</svg>
