<svg id="logo" xmlns="http://www.w3.org/2000/svg" width="212.489" height="139.878" viewBox="0 0 212.489 139.878">
  <g id="logotipo" transform="translate(63.373 0)">
    <g id="Grupo_1" data-name="Grupo 1" transform="translate(0)">
      <rect id="Retângulo_1" data-name="Retângulo 1" width="29.824" height="29.824" transform="translate(40.863 0) rotate(43)" fill="#ee008d"/>
      <rect id="Retângulo_2" data-name="Retângulo 2" width="29.824" height="29.824" transform="translate(40.863 40.852) rotate(43)" fill="#01a0a1"/>
      <path id="Caminho_1" data-name="Caminho 1" d="M.143,0H29.967l-1.01,15.16.717,13.492-.7,1.748-14.7-.023L0,28.9Z" transform="translate(0 42.342) rotate(-47)" fill="#fdc308"/>
      <path id="Caminho_3" data-name="Caminho 3" d="M0,.448,15.815,0l14.2,1.376-.2,28.9H0L.926,15,.436,1.707Z" transform="translate(40.623 41.932) rotate(-47)" fill="#8cc745"/>
    </g>
    <path id="União_1" data-name="União 1" d="M11.171,32.094l9.3-10.037H0L11.494,10.873l9.743,9.48.043.041V0L32.145,11.284l-9.279,10H43.337L31.843,32.464l-9.786-9.521V43.337Z" transform="translate(18.55 21.369) rotate(-4)" fill="#fff"/>
    <rect id="Retângulo_3" data-name="Retângulo 3" width="4.505" height="4.505" rx="2.252" transform="translate(38.489 40.245) rotate(-22)" fill="#fff"/>
  </g>
  <g id="Grupo_3" data-name="Grupo 3" transform="translate(0 95.24)">
    <text id="COLÉGIO" transform="translate(66.244 14)" fill="#0d3e84" font-size="16" font-family="Garamond-Bold, Garamond" font-weight="700" letter-spacing="0.05em"><tspan x="0" y="0">COLÉGIO</tspan></text>
    <g id="Grupo_2" data-name="Grupo 2" transform="translate(0 12.638)">
      <text id="SANTA_LAURA" data-name="SANTA LAURA" transform="translate(5.244 24)" fill="#0d3e84" font-size="28" font-family="Garamond-Bold, Garamond" font-weight="700" letter-spacing="0.02em"><tspan x="0" y="0">SANTA LAURA</tspan></text>
      <line id="Linha_1" data-name="Linha 1" x2="212.489" transform="translate(0 31)" fill="none" stroke="#0d3e84" stroke-width="2"/>
    </g>
  </g>
</svg>
